<svg xmlns="http://www.w3.org/2000/svg" viewBox="0 0 64 64" width="64" height="64"><defs><linearGradient id="shade-0" x1="15%" y1="0%" x2="85%" y2="100%"><stop offset="0" stop-color="#80ab71"/><stop offset=".45" stop-color="#4E8A3A"/><stop offset="1" stop-color="#3b692c"/></linearGradient><linearGradient id="shade-1" x1="15%" y1="0%" x2="85%" y2="100%"><stop offset="0" stop-color="#f4ab61"/><stop offset=".45" stop-color="#F08A24"/><stop offset="1" stop-color="#b6691b"/></linearGradient><linearGradient id="shade-2" x1="15%" y1="0%" x2="85%" y2="100%"><stop offset="0" stop-color="#e39b5a"/><stop offset=".45" stop-color="#D8741A"/><stop offset="1" stop-color="#a45814"/></linearGradient></defs><path d="M32 19 Q35 14 34 9" stroke="#6B4A2B" stroke-width="2.6" fill="none" stroke-linecap="round"/><path d="M0 0 C6 -7 16 -6 20 0 C16 6 6 7 0 0Z" fill="url(#shade-0)" transform="translate(34 11) rotate(-30)"/><circle cx="32" cy="38" r="21" fill="url(#shade-1)"/><circle cx="36.2" cy="38.0" r="1.4" fill="url(#shade-2)"/><circle cx="27.6" cy="42.0" r="1.4" fill="url(#shade-2)"/><circle cx="32.6" cy="30.7" r="1.4" fill="url(#shade-2)"/><circle cx="37.1" cy="44.7" r="1.4" fill="url(#shade-2)"/><circle cx="22.7" cy="36.4" r="1.4" fill="url(#shade-2)"/><circle cx="40.7" cy="32.5" r="1.4" fill="url(#shade-2)"/><circle cx="29.1" cy="48.8" r="1.4" fill="url(#shade-2)"/><circle cx="26.5" cy="27.4" r="1.4" fill="url(#shade-2)"/><circle cx="43.9" cy="42.3" r="1.4" fill="url(#shade-2)"/><circle cx="19.7" cy="43.1" r="1.4" fill="url(#shade-2)"/><circle cx="37.9" cy="25.3" r="1.4" fill="url(#shade-2)"/><circle cx="36.4" cy="51.9" r="1.4" fill="url(#shade-2)"/><circle cx="18.9" cy="30.4" r="1.4" fill="url(#shade-2)"/><circle cx="47.4" cy="34.6" r="1.4" fill="url(#shade-2)"/><ellipse cx="24" cy="28.549999999999997" rx="6.3" ry="3.78" fill="#fff" opacity="0.35" transform="rotate(-35 24 28.549999999999997)"/></svg>
