<svg xmlns="http://www.w3.org/2000/svg" viewBox="0 0 64 64" width="64" height="64"><path d="M32 18 Q35 13 34 8" stroke="#6B4A2B" stroke-width="2.6" fill="none" stroke-linecap="round"/><path d="M0 0 C6 -7 16 -6 20 0 C16 6 6 7 0 0Z" fill="#4E8A3A" transform="translate(34 10) rotate(-30)"/><circle cx="26" cy="32" r="9" fill="#9A4B2A"/><ellipse cx="23" cy="29" rx="2.2" ry="1.32" fill="#fff" opacity="0.35" transform="rotate(-35 23 29)"/><circle cx="38" cy="32" r="9" fill="#9A4B2A"/><ellipse cx="35" cy="29" rx="2.2" ry="1.32" fill="#fff" opacity="0.35" transform="rotate(-35 35 29)"/><circle cx="26" cy="44" r="9" fill="#9A4B2A"/><ellipse cx="23" cy="41" rx="2.2" ry="1.32" fill="#fff" opacity="0.35" transform="rotate(-35 23 41)"/><circle cx="38" cy="44" r="9" fill="#9A4B2A"/><ellipse cx="35" cy="41" rx="2.2" ry="1.32" fill="#fff" opacity="0.35" transform="rotate(-35 35 41)"/></svg>
