<svg xmlns="http://www.w3.org/2000/svg" viewBox="0 0 64 64" width="64" height="64"><path d="M32 11 Q28 15.5 20 20" stroke="#6B4A2B" stroke-width="2.6" fill="none" stroke-linecap="round"/><path d="M32 11 Q33 14.5 30 18" stroke="#6B4A2B" stroke-width="2.6" fill="none" stroke-linecap="round"/><path d="M32 11 Q38 15.5 40 20" stroke="#6B4A2B" stroke-width="2.6" fill="none" stroke-linecap="round"/><path d="M32 11 Q26 21.5 16 32" stroke="#6B4A2B" stroke-width="2.6" fill="none" stroke-linecap="round"/><path d="M32 11 Q31 21.5 26 32" stroke="#6B4A2B" stroke-width="2.6" fill="none" stroke-linecap="round"/><path d="M32 11 Q36 21.5 36 32" stroke="#6B4A2B" stroke-width="2.6" fill="none" stroke-linecap="round"/><path d="M32 11 Q41 21.5 46 32" stroke="#6B4A2B" stroke-width="2.6" fill="none" stroke-linecap="round"/><path d="M32 11 Q29 27.5 22 44" stroke="#6B4A2B" stroke-width="2.6" fill="none" stroke-linecap="round"/><path d="M32 11 Q34 27.5 32 44" stroke="#6B4A2B" stroke-width="2.6" fill="none" stroke-linecap="round"/><path d="M32 11 Q39 27.5 42 44" stroke="#6B4A2B" stroke-width="2.6" fill="none" stroke-linecap="round"/><path d="M0 0 C6 -7 16 -6 20 0 C16 6 6 7 0 0Z" fill="#4E8A3A" transform="translate(32 13) rotate(-150)"/><ellipse cx="20" cy="26" rx="5" ry="7" fill="#D98A2B"/><ellipse cx="18.25" cy="23.2" rx="1.5" ry="0.8999999999999999" fill="#fff" opacity="0.35" transform="rotate(-35 18.25 23.2)"/><ellipse cx="30" cy="24" rx="5" ry="7" fill="#D98A2B"/><ellipse cx="28.25" cy="21.2" rx="1.5" ry="0.8999999999999999" fill="#fff" opacity="0.35" transform="rotate(-35 28.25 21.2)"/><ellipse cx="40" cy="26" rx="5" ry="7" fill="#D98A2B"/><ellipse cx="38.25" cy="23.2" rx="1.5" ry="0.8999999999999999" fill="#fff" opacity="0.35" transform="rotate(-35 38.25 23.2)"/><ellipse cx="16" cy="38" rx="5" ry="7" fill="#D98A2B"/><ellipse cx="14.25" cy="35.2" rx="1.5" ry="0.8999999999999999" fill="#fff" opacity="0.35" transform="rotate(-35 14.25 35.2)"/><ellipse cx="26" cy="38" rx="5" ry="7" fill="#D98A2B"/><ellipse cx="24.25" cy="35.2" rx="1.5" ry="0.8999999999999999" fill="#fff" opacity="0.35" transform="rotate(-35 24.25 35.2)"/><ellipse cx="36" cy="38" rx="5" ry="7" fill="#D98A2B"/><ellipse cx="34.25" cy="35.2" rx="1.5" ry="0.8999999999999999" fill="#fff" opacity="0.35" transform="rotate(-35 34.25 35.2)"/><ellipse cx="46" cy="38" rx="5" ry="7" fill="#D98A2B"/><ellipse cx="44.25" cy="35.2" rx="1.5" ry="0.8999999999999999" fill="#fff" opacity="0.35" transform="rotate(-35 44.25 35.2)"/><ellipse cx="22" cy="50" rx="5" ry="7" fill="#D98A2B"/><ellipse cx="20.25" cy="47.2" rx="1.5" ry="0.8999999999999999" fill="#fff" opacity="0.35" transform="rotate(-35 20.25 47.2)"/><ellipse cx="32" cy="50" rx="5" ry="7" fill="#D98A2B"/><ellipse cx="30.25" cy="47.2" rx="1.5" ry="0.8999999999999999" fill="#fff" opacity="0.35" transform="rotate(-35 30.25 47.2)"/><ellipse cx="42" cy="50" rx="5" ry="7" fill="#D98A2B"/><ellipse cx="40.25" cy="47.2" rx="1.5" ry="0.8999999999999999" fill="#fff" opacity="0.35" transform="rotate(-35 40.25 47.2)"/></svg>
